Coordinates
version=1
nRows=27
nColumns=12
inDegrees=yes

Units are S.I. units (second, meters, Newtons, ...)
Angles are in degrees

endheader
time	SC_y	SC_z	SC_x	AC_y	AC_z	AC_x	GH_y	GH_z	GH_yy	EL_x	PS_y
       0.0              -21.33          27.65          83.41          58.67         -16.92          13.86          105.4          62.52          100.3           5.66          126.0
    0.0118              -21.34          27.64          83.39          58.66         -16.92          13.86          105.4          62.51          100.2          5.675          126.0
    0.0236              -21.34          27.64          83.38          58.66         -16.92          13.86          105.4           62.5          100.2          5.691          126.0
   0.03539              -21.34          27.63          83.37          58.66         -16.91          13.86          105.4          62.49          100.2          5.707          126.0
   0.04719              -21.35          27.63          83.35          58.66         -16.91          13.86          105.4          62.48          100.2          5.725          126.0
   0.05899              -21.35          27.62          83.34          58.66         -16.91          13.86          105.4          62.47          100.2          5.743          126.0
   0.07079              -21.36          27.61          83.32          58.65         -16.91          13.86          105.4          62.46          100.2          5.764          126.0
   0.08259              -21.36          27.61          83.31          58.65         -16.91          13.86          105.4          62.45          100.1          5.785          126.0
   0.09438              -21.37           27.6          83.29          58.65         -16.91          13.86          105.4          62.43          100.1          5.808          126.0
    0.1062              -21.37          27.59          83.27          58.65          -16.9          13.86          105.4          62.42          100.1          5.832          126.0
     0.118              -21.38          27.58          83.25          58.64          -16.9          13.86          105.5           62.4          100.1          5.859          126.0
    0.1298              -21.39          27.57          83.22          58.64          -16.9          13.86          105.5          62.39          100.0          5.887          126.0
    0.1416               -21.4          27.56           83.2          58.64          -16.9          13.86          105.5          62.37          100.0          5.918          126.0
    0.1534               -21.4          27.55          83.17          58.63         -16.89          13.86          105.5          62.35          99.98          5.951          126.0
    0.1652              -21.41          27.54          83.14          58.63         -16.89          13.86          105.5          62.33          99.94          5.987          126.0
     0.177              -21.42          27.53          83.11          58.62         -16.89          13.86          105.5          62.31          99.91          6.026          126.0
    0.1888              -21.43          27.52          83.08          58.62         -16.88          13.86          105.5          62.28          99.87          6.068          126.1
    0.2006              -21.44           27.5          83.04          58.61         -16.88          13.86          105.5          62.26          99.82          6.114          126.1
    0.2124              -21.46          27.49           83.0          58.61         -16.87          13.85          105.5          62.23          99.78          6.164          126.1
    0.2242              -21.47          27.47          82.96           58.6         -16.87          13.85          105.5           62.2          99.72          6.219          126.1
     0.236              -21.49          27.45          82.91          58.59         -16.86          13.85          105.5          62.16          99.67           6.28          126.1
    0.2478               -21.5          27.43          82.86          58.58         -16.86          13.85          105.5          62.13          99.61          6.346          126.1
    0.2596              -21.52           27.4           82.8          58.57         -16.85          13.85          105.6          62.08          99.54           6.42          126.1
    0.2714              -21.54          27.38          82.73          58.56         -16.84          13.85          105.6          62.04          99.46          6.501          126.1
    0.2831              -21.56          27.35          82.66          58.55         -16.84          13.85          105.6          61.99          99.37          6.591          126.1
    0.2949              -21.59          27.31          82.58          58.54         -16.83          13.85          105.6          61.93          99.28          6.692          126.1
    0.3067              -21.61          27.28          82.49          58.53         -16.82          13.85          105.6          61.86          99.17          6.805          126.1
